<?xml version="1.0" encoding="iso-8859-1"?>
<!-- Uploaded to: SVG Repo, www.svgrepo.com, Generator: SVG Repo Mixer Tools -->
<svg height="800px" width="800px" version="1.1" id="Layer_1" xmlns="http://www.w3.org/2000/svg" xmlns:xlink="http://www.w3.org/1999/xlink" 
	 viewBox="0 0 512 512" xml:space="preserve">
<g>
	<g>
		<path style="fill:#25AE88;" d="M432.552,282.483H256H79.448c0,0-52.966,32-52.966,114.759S79.448,512,79.448,512H256h176.552
			c0,0,52.966-32,52.966-114.759S432.552,282.483,432.552,282.483"/>
		<path style="fill:#25AE88;" d="M432.552,0H256H79.448c0,0-52.966,32-52.966,114.759s52.966,114.759,52.966,114.759H256h176.552
			c0,0,52.966-32,52.966-114.759S432.552,0,432.552,0"/>
	</g>
	<path style="fill:#C7D6D8;" d="M103.879,185.379c-5.844,0-11.29-2.781-14.733-7.503c-8.81-12.085-18.52-32.38-18.52-63.117
		s9.71-51.032,18.52-63.117c3.443-4.723,8.889-7.503,14.733-7.503h304.243c5.844,0,11.29,2.781,14.733,7.503
		c8.81,12.085,18.529,32.38,18.529,63.117s-9.719,51.032-18.529,63.117c-3.443,4.723-8.889,7.503-14.733,7.503H103.879z"/>
	<g>
		<path style="fill:#73E0BF;" d="M132.414,282.483h35.31v-52.966h-35.31V282.483z"/>
		<path style="fill:#73E0BF;" d="M344.276,282.483h35.31v-52.966h-35.31V282.483z"/>
	</g>
	<path style="fill:#F30043;" d="M147.723,370.759H99.445c-1.289,0-2.339-1.05-2.339-2.348v-48.269c0-1.298,1.05-2.348,2.339-2.348
		h48.278c1.298,0,2.348,1.05,2.348,2.348v48.269C150.072,369.708,149.021,370.759,147.723,370.759"/>
	<path style="fill:#FECF32;" d="M244.827,370.759h-48.278c-1.289,0-2.339-1.05-2.339-2.348v-48.269c0-1.298,1.051-2.348,2.339-2.348
		h48.278c1.298,0,2.348,1.05,2.348,2.348v48.269C247.175,369.708,246.125,370.759,244.827,370.759"/>
	<path style="fill:#F36A22;" d="M147.723,467.862H99.445c-1.289,0-2.339-1.05-2.339-2.348v-48.269c0-1.298,1.05-2.348,2.339-2.348
		h48.278c1.298,0,2.348,1.05,2.348,2.348v48.269C150.072,466.812,149.021,467.862,147.723,467.862"/>
	<path style="fill:#A485BE;" d="M244.827,467.862h-48.278c-1.289,0-2.339-1.05-2.339-2.348v-48.269c0-1.298,1.051-2.348,2.339-2.348
		h48.278c1.298,0,2.348,1.05,2.348,2.348v48.269C247.175,466.812,246.125,467.862,244.827,467.862"/>
	<g>
		<path style="fill:#434C6D;" d="M317.793,467.862c-4.882,0-8.828-3.946-8.828-8.828v-88.276c0-4.882,3.946-8.828,8.828-8.828
			c4.882,0,8.828,3.946,8.828,8.828v88.276C326.621,463.916,322.675,467.862,317.793,467.862"/>
		<path style="fill:#434C6D;" d="M397.241,432.552c-4.882,0-8.828-3.946-8.828-8.828v-88.276c0-4.882,3.946-8.828,8.828-8.828
			c4.882,0,8.828,3.946,8.828,8.828v88.276C406.069,428.606,402.123,432.552,397.241,432.552"/>
	</g>
	<g>
		<path style="fill:#FD9B9C;" d="M397.241,476.69c14.627,0,26.483-27.533,26.483-39.724s-11.855-22.069-26.483-22.069
			c-14.627,0-26.483,9.878-26.483,22.069S382.614,476.69,397.241,476.69"/>
		<path style="fill:#FD9B9C;" d="M317.793,317.793c-14.627,0-26.483,27.533-26.483,39.724c0,12.191,11.855,22.069,26.483,22.069
			c14.627,0,26.483-9.878,26.483-22.069C344.276,345.326,332.42,317.793,317.793,317.793"/>
	</g>
</g>
</svg>